<svg xmlns="http://www.w3.org/2000/svg" viewBox="0 0 123.94 16.56"><defs><style>.cls-1,.cls-3,.cls-4{fill:#fff;}.cls-1,.cls-2{stroke:#fff;stroke-miterlimit:10;}.cls-2{fill:none;}.cls-4{font-size:11.48px;font-family:LouisGeorgeCafe-Bold, Louis George Café;font-weight:700;letter-spacing:-0.03em;}.cls-5{letter-spacing:0.05em;}</style></defs><title>TJG logo</title><g id="Layer_3" data-name="Layer 3"><path class="cls-1" d="M6.46,8.4a20.92,20.92,0,0,0-2.13,1.9c-.89,1-1.75,2-1.75,2l4.26,3.23.72-.83V9.2Z" transform="translate(-1.87 -5.94)"/><path class="cls-2" d="M18.68,22V9.14l.89-1a8.42,8.42,0,0,0-1.41-.89,11.26,11.26,0,0,0-2.58-.74,7.14,7.14,0,0,1-2.37.61,7.14,7.14,0,0,1-2.37-.61,11.26,11.26,0,0,0-2.58.74,8.42,8.42,0,0,0-1.41.89l.89,1V22Z" transform="translate(-1.87 -5.94)"/><path class="cls-2" d="M15.72,6.77s-.21,1.75-2.51,1.75S10.7,6.77,10.7,6.77" transform="translate(-1.87 -5.94)"/><path class="cls-1" d="M20,8.4a20.92,20.92,0,0,1,2.13,1.9c.89,1,1.75,2,1.75,2l-4.26,3.23-.72-.83V9.2Z" transform="translate(-1.87 -5.94)"/><rect class="cls-3" x="5.87" y="13.16" width="10.93" height="1.78"/></g><g id="Layer_4" data-name="Layer 4"><text class="cls-4" transform="translate(24.63 13.18) scale(1.05 1)">Th<tspan class="cls-5" x="11.51" y="0">e</tspan><tspan x="18.06" y="0">JerrardGarage</tspan></text></g></svg>